HIERARCHY
ROOT root
{
	OFFSET	0	13.1	24.9
	CHANNELS 6  Xposition Yposition Zposition Xrotation Yrotation Zrotation
	JOINT spine_1
	{
		OFFSET	0	9.99999	0
		CHANNELS 3  Xrotation Yrotation Zrotation
		JOINT spine_2
		{
			OFFSET	0	112	-10
			CHANNELS 3  Xrotation Yrotation Zrotation
			JOINT spine_3
			{
				OFFSET	0	206.5	19.3
				CHANNELS 3  Xrotation Yrotation Zrotation
				JOINT spine_4
				{
					OFFSET	0	110.4	14.6
					CHANNELS 3  Xrotation Yrotation Zrotation
					JOINT neck_1
					{
						OFFSET	0	71.8	-50.3
						CHANNELS 3  Xrotation Yrotation Zrotation
						JOINT neck_2
						{
							OFFSET	0	86.2	-25.8
							CHANNELS 3  Xrotation Yrotation Zrotation
							JOINT head_ee
							{
								OFFSET	0	179.8	-8.7
								CHANNELS 3  Xrotation Yrotation Zrotation
								End Site
								{
									OFFSET	1	0	0
								}
							}
						}
					}
					JOINT left_clavicle
					{
						OFFSET	-43.2	22.4	-70.8
						CHANNELS 3  Xrotation Yrotation Zrotation
						JOINT left_shoulder
						{
							OFFSET	-93.9	-5.79999	48.7
							CHANNELS 3  Xrotation Yrotation Zrotation
							JOINT left_elbow
							{
								OFFSET	-291.4	-30.8	15.2
								CHANNELS 3  Xrotation Yrotation Zrotation
								JOINT left_lowarm_twist
								{
									OFFSET	-110.7	-3.89999	13.6
									CHANNELS 3  Xrotation Yrotation Zrotation
									JOINT left_hand
									{
										OFFSET	-110.7	-3.89999	13.6
										CHANNELS 3  Xrotation Yrotation Zrotation
										JOINT left_ee
										{
											OFFSET	-80.8	-5.10001	12.1
											CHANNELS 3  Xrotation Yrotation Zrotation
											End Site
											{
												OFFSET	1	0	0
											}
										}
									}
								}
							}
						}
					}
					JOINT right_clavicle
					{
						OFFSET	43.2	22.4	-70.8
						CHANNELS 3  Xrotation Yrotation Zrotation
						JOINT right_shoulder
						{
							OFFSET	93.9	-5.79999	48.7
							CHANNELS 3  Xrotation Yrotation Zrotation
							JOINT right_elbow
							{
								OFFSET	291.4	-30.8	15.2
								CHANNELS 3  Xrotation Yrotation Zrotation
								JOINT right_lowarm_twist
								{
									OFFSET	110.7	-3.89999	13.6
									CHANNELS 3  Xrotation Yrotation Zrotation
									JOINT right_hand
									{
										OFFSET	110.7	-3.89999	13.6
										CHANNELS 3  Xrotation Yrotation Zrotation
										JOINT right_ee
										{
											OFFSET	80.8	-5.10001	12.1
											CHANNELS 3  Xrotation Yrotation Zrotation
											End Site
											{
												OFFSET	1	0	0
											}
										}
									}
								}
							}
						}
					}
				}
			}
		}
	}
	JOINT left_hip
	{
		OFFSET	-82.8	-127.5	0.300001
		CHANNELS 3  Xrotation Yrotation Zrotation
		JOINT left_knee
		{
			OFFSET	-28.2	-396.7	2.2
			CHANNELS 3  Xrotation Yrotation Zrotation
			JOINT left_ankle
			{
				OFFSET	-11.7	-411.3	35.4
				CHANNELS 3  Xrotation Yrotation Zrotation
				JOINT left_toes
				{
					OFFSET	0	-60	-88.6
					CHANNELS 3  Xrotation Yrotation Zrotation
					JOINT left_foot_ee
					{
						OFFSET	-22.5	-16.5	-42.2
						CHANNELS 3  Xrotation Yrotation Zrotation
						End Site
						{
							OFFSET	1	0	0
						}
					}
				}
			}
		}
	}
	JOINT right_hip
	{
		OFFSET	82.8	-127.5	0.300001
		CHANNELS 3  Xrotation Yrotation Zrotation
		JOINT right_knee
		{
			OFFSET	28.2	-396.7	2.2
			CHANNELS 3  Xrotation Yrotation Zrotation
			JOINT right_ankle
			{
				OFFSET	11.7	-411.3	35.4
				CHANNELS 3  Xrotation Yrotation Zrotation
				JOINT right_toes
				{
					OFFSET	0	-60	-88.6
					CHANNELS 3  Xrotation Yrotation Zrotation
					JOINT right_foot_ee
					{
						OFFSET	22.5	-16.5	-42.2
						CHANNELS 3  Xrotation Yrotation Zrotation
						End Site
						{
							OFFSET	1	0	0
						}
					}
				}
			}
		}
	}
}
MOTION
Frames: 6
Frame Time: 0.02
880.599 697.876 -1120.39 -162.249 -56.6219 -163.963 1.32313 -0.456687 -1.05384 1.32366 -0.388707 -1.08076 1.3312 -0.179328 -1.13444 1.32958 -0.356231 -1.09189 -6.37387 9.36707 3.29347 -6.33956 14.9532 5.11764 -0.0 0.0 -0.0 10.4243 -3.58566 20.6914 -20.4848 -12.8183 36.3828 2.53175 -51.4246 1.21927 18.2096 0.278263 -2.2997 0.587019 -1.48814 3.30748 -0.0 0.0 -0.0 6.84894 -1.76888 -13.2902 -24.9877 15.1668 -53.9746 0.361361 10.1491 -0.0320889 33.549 0.0569046 4.22467 2.1697 -29.8182 -23.9027 0.0 0.0 0.0 -6.17318 -23.1236 9.34935 -10.027 0.281212 1.51118 42.0148 24.8952 -5.3536 -33.4503 0.0 0.0 -0.0 0.0 -0.0 43.3519 22.524 -8.02231 -6.38722 -0.209793 -0.957295 9.18056 25.1423 1.56134 -8.93894 0.0 0.0 0.0 0.0 0.0 
897.95 695.158 -1113.6 -162.939 -57.3266 -164.765 1.05409 -0.438944 -1.17519 1.05479 -0.363279 -1.20074 1.06269 -0.126018 -1.24814 1.06066 -0.321542 -1.21258 -6.21449 8.5222 2.11165 -6.19177 14.2302 3.75254 -0.0 0.0 -0.0 10.2795 -3.40383 20.3775 -20.6171 -13.1905 36.7879 2.60627 -52.2315 1.27785 18.1611 0.278499 -2.29351 0.763275 -3.20234 3.7798 -0.0 0.0 -0.0 6.91532 -0.677757 -13.424 -24.7237 15.3017 -54.0453 0.293279 8.2664 -0.0211934 34.1888 0.0819938 4.30251 2.17555 -29.778 -23.9294 0.0 0.0 0.0 -5.83268 -21.7324 10.291 -13.5421 0.316667 2.04927 42.6385 24.6254 -5.40114 -33.4653 0.0 0.0 -0.0 0.0 -0.0 43.0644 22.9987 -7.9008 -7.88655 -0.243475 -1.18491 9.8062 26.3337 1.68654 -8.25266 0.0 0.0 0.0 0.0 0.0 
918.865 694.555 -1102.15 -164.455 -58.4172 -166.043 1.0723 -0.562087 -1.14541 1.0729 -0.488068 -1.17885 1.08326 -0.253165 -1.25052 1.08136 -0.44747 -1.19485 -5.88272 8.43286 2.23291 -5.8533 13.9382 3.82216 -0.0 0.0 -0.0 10.3186 -3.37024 20.4595 -21.5493 -13.4833 37.7686 2.60754 -52.245 1.27886 17.2413 0.28198 -2.17608 0.778978 -2.12475 4.33366 -0.0 0.0 -0.0 6.96801 -0.455039 -13.5283 -24.5875 15.3936 -54.0994 0.260418 7.35093 -0.0167285 34.143 0.0801708 4.29695 2.11632 -29.7338 -23.5678 0.0 0.0 0.0 -7.77145 -20.4345 9.30223 -14.3211 0.320052 2.16874 41.6608 24.906 -5.32137 -33.6471 0.0 0.0 -0.0 0.0 -0.0 42.7197 23.3837 -8.00236 -11.2259 -0.297014 -1.69445 8.94104 26.9911 1.55556 -8.02542 0.0 0.0 0.0 0.0 0.0 
942.247 700.365 -1085.99 -164.162 -58.7625 -166.226 0.949382 -0.293061 -0.919558 0.949822 -0.233956 -0.93634 0.953823 -0.0480021 -0.963929 0.952582 -0.199627 -0.944254 -6.32935 9.15667 4.09647 -6.28161 13.9683 5.87558 -0.0 0.0 -0.0 10.0268 -3.05226 19.8315 -22.3295 -13.5995 38.161 2.6043 -52.2106 1.2763 15.9384 0.283684 -2.00968 0.324963 3.85862 3.76316 -0.0 0.0 -0.0 7.08645 -0.650782 -13.7617 -25.0688 15.1645 -54.293 0.396148 11.1028 -0.0385037 35.9486 0.155476 4.51512 1.71639 -29.4567 -21.153 0.0 0.0 0.0 -7.61305 -21.3946 8.28233 -15.5363 0.322088 2.35517 32.9542 20.9805 -4.346 -35.8394 0.0 0.0 -0.0 0.0 -0.0 41.3123 23.4921 -8.57072 -11.9966 -0.305145 -1.81242 8.23581 21.364 1.35094 -7.21984 0.0 0.0 0.0 0.0 0.0 
968.111 703.039 -1070.17 -164.677 -60.3537 -167.032 0.698194 -0.173829 -0.92698 0.698665 -0.114493 -0.936161 0.700709 0.073331 -0.940281 0.699483 -0.0760825 -0.940062 -5.17066 10.1934 4.92327 -5.08038 15.0907 6.78133 -0.0 0.0 -0.0 10.0453 -1.97509 19.8343 -23.103 -13.7091 39.3911 2.5396 -51.5109 1.22541 16.0454 0.283687 -2.02334 0.809474 -0.810264 5.08163 -0.0 0.0 -0.0 7.42569 -0.89967 -14.4302 -24.2782 15.8112 -54.3345 0.328739 9.24948 -0.0265927 35.0703 0.117987 4.4093 1.53381 -29.2819 -20.0503 0.0 0.0 0.0 -7.69191 -17.7365 8.03598 -18.9134 0.306986 2.87302 36.0078 24.6201 -4.75697 -34.8236 0.0 0.0 -0.0 0.0 -0.0 40.0031 23.6673 -8.26103 -16.9586 -0.319449 -2.57336 11.6774 22.6639 1.91318 -6.85876 0.0 0.0 0.0 0.0 0.0 
985.01 707.347 -1058.32 -164.243 -60.4676 -167.331 0.854459 0.0469064 -0.489648 0.854589 0.0779686 -0.485671 0.853943 0.171456 -0.461041 0.853659 0.0964923 -0.482333 -7.22884 8.93403 4.47224 -7.1883 13.4132 6.29358 -0.0 0.0 -0.0 10.196 -2.58607 20.1735 -24.6455 -13.3272 39.1311 2.44655 -50.4655 1.1531 15.6833 0.283575 -1.97709 0.832399 -0.361257 5.42003 -0.0 0.0 -0.0 7.78856 0.285727 -15.1667 -24.042 16.2208 -54.099 0.359976 10.111 -0.0318454 35.346 0.129581 4.44258 2.0201 -29.42 -22.9301 0.0 0.0 0.0 -7.41369 -17.6506 7.69698 -16.5863 0.320663 2.51626 38.6915 25.71 -5.06329 -34.3082 0.0 0.0 -0.0 0.0 -0.0 38.4003 23.8358 -7.96826 -14.9995 -0.321676 -2.27281 7.67011 26.584 1.33474 -7.53571 0.0 0.0 0.0 0.0 0.0 
